# xmcd
#
# Track frame offsets:
# 150
# 14083
# 32238
# 50040
# 70399
# 86888
# 118526
# 145130
# 163139
# 182710
# 196679
# 212416
# 233428
# 250580
# 267380
#
# Disc length: 3790 seconds
#
#
# Revision: 3
# Processed by: cddbd v1.5.1PL0 Copyright (c) Steve Scherf et al.
# Submitted via: FreeRIP 2.93 
#
DISCID=d50ecc0f
DTITLE=Various Artist - Big Hit 1980-2000 Black - CD 1\\2
DYEAR=2001
DGENRE=R and B
TTITLE0=Lutricia McNeal - Ain't That Just The Way
TTITLE1=Dana Dawson - 3 Is A Family
TTITLE2=Eternal - Stay
TTITLE3=Soul To Soul - Joy
TTITLE4=Dayton - The Sound Of Music
TTITLE5=BB and Q Band - On The Beat
TTITLE6=Loose Ends - Hangin' On A String
TTITLE7=Innocence - Let's Push It
TTITLE8=Shalamar - I Can Make You Feel Good
TTITLE9=The Whispers - And The Beat Goes On
TTITLE10=Sydney Youngblood - If Only I Could
TTITLE11=Charles and Eddie - Would I Lie To You?
TTITLE12=Flip Da Scrip - Throw Your Hand In The Air '95
TTITLE13=Beat System - Fresh
TTITLE14=Down Low - Once Upon A Time
EXTD=(c) 2001 Disky - EMI Group\nupc 0724356453227\nKatalog: DO 645322\nCD 1/2
EXTT0=
EXTT1=
EXTT2=
EXTT3=
EXTT4=
EXTT5=
EXTT6=
EXTT7=
EXTT8=
EXTT9=
EXTT10=
EXTT11=
EXTT12=
EXTT13=
EXTT14=
PLAYORDER=
